<mxfile host="Electron" modified="2023-05-05T11:30:49.605Z" agent="Mozilla/5.0 (Macintosh; Intel Mac OS X 10_15_7) AppleWebKit/537.36 (KHTML, like Gecko) draw.io/21.2.1 Chrome/112.0.5615.87 Electron/24.1.2 Safari/537.36" etag="tdnKUttNvSIaoRMMTBUK" version="21.2.1" type="device">
  <diagram name="Sayfa -1" id="8NeKBj6dZh0A2Mszi5lu">
    <mxGraphModel dx="2295" dy="2287" grid="1" gridSize="10" guides="1" tooltips="1" connect="1" arrows="1" fold="1" page="1" pageScale="1" pageWidth="827" pageHeight="1169" math="0" shadow="0">
      <root>
        <mxCell id="0" />
        <mxCell id="1" parent="0" />
        <mxCell id="yMuBvw2z0iRrxeMvUbNI-1" value="&lt;font style=&quot;font-size: 14px;&quot;&gt;Student&lt;/font&gt;" style="rounded=0;whiteSpace=wrap;html=1;" parent="1" vertex="1">
          <mxGeometry x="-40" y="110" width="120" height="60" as="geometry" />
        </mxCell>
        <mxCell id="yMuBvw2z0iRrxeMvUbNI-2" value="&lt;font style=&quot;font-size: 14px;&quot;&gt;Tutor&lt;/font&gt;" style="rounded=0;whiteSpace=wrap;html=1;" parent="1" vertex="1">
          <mxGeometry x="760" y="-20" width="120" height="60" as="geometry" />
        </mxCell>
        <mxCell id="yMuBvw2z0iRrxeMvUbNI-23" style="edgeStyle=orthogonalEdgeStyle;rounded=0;orthogonalLoop=1;jettySize=auto;html=1;entryX=0.911;entryY=-0.017;entryDx=0;entryDy=0;fontSize=14;exitX=0.905;exitY=0.992;exitDx=0;exitDy=0;exitPerimeter=0;entryPerimeter=0;" parent="1" source="yMuBvw2z0iRrxeMvUbNI-3" target="yMuBvw2z0iRrxeMvUbNI-7" edge="1">
          <mxGeometry relative="1" as="geometry">
            <mxPoint x="490" y="170" as="sourcePoint" />
            <Array as="points">
              <mxPoint x="480" y="170" />
              <mxPoint x="480" y="210" />
              <mxPoint x="679" y="210" />
            </Array>
          </mxGeometry>
        </mxCell>
        <mxCell id="yMuBvw2z0iRrxeMvUbNI-86" style="edgeStyle=orthogonalEdgeStyle;rounded=0;orthogonalLoop=1;jettySize=auto;html=1;fontSize=12;elbow=vertical;exitX=0.25;exitY=1;exitDx=0;exitDy=0;entryX=0.5;entryY=0;entryDx=0;entryDy=0;" parent="1" source="yMuBvw2z0iRrxeMvUbNI-3" target="yMuBvw2z0iRrxeMvUbNI-92" edge="1">
          <mxGeometry relative="1" as="geometry">
            <mxPoint x="480" y="300" as="targetPoint" />
            <mxPoint x="370" y="180" as="sourcePoint" />
            <Array as="points">
              <mxPoint x="370" y="170" />
              <mxPoint x="370" y="240" />
              <mxPoint x="450" y="240" />
              <mxPoint x="450" y="280" />
            </Array>
          </mxGeometry>
        </mxCell>
        <mxCell id="yMuBvw2z0iRrxeMvUbNI-127" style="edgeStyle=orthogonalEdgeStyle;rounded=0;orthogonalLoop=1;jettySize=auto;html=1;fontSize=12;elbow=vertical;entryX=0.333;entryY=1.05;entryDx=0;entryDy=0;entryPerimeter=0;" parent="1" source="yMuBvw2z0iRrxeMvUbNI-3" target="yMuBvw2z0iRrxeMvUbNI-124" edge="1">
          <mxGeometry relative="1" as="geometry">
            <mxPoint x="585" y="-10" as="targetPoint" />
            <Array as="points">
              <mxPoint x="470" y="40" />
              <mxPoint x="585" y="40" />
            </Array>
          </mxGeometry>
        </mxCell>
        <mxCell id="aDCpL4Bax41A2ZxA9qRh-16" style="edgeStyle=orthogonalEdgeStyle;rounded=0;orthogonalLoop=1;jettySize=auto;html=1;exitX=0;exitY=0.25;exitDx=0;exitDy=0;entryX=1;entryY=0.25;entryDx=0;entryDy=0;" edge="1" parent="1" source="yMuBvw2z0iRrxeMvUbNI-3" target="yMuBvw2z0iRrxeMvUbNI-1">
          <mxGeometry relative="1" as="geometry" />
        </mxCell>
        <mxCell id="yMuBvw2z0iRrxeMvUbNI-3" value="&lt;font style=&quot;font-size: 14px;&quot;&gt;1&lt;br&gt;User Authentication&lt;br&gt;HTML/PHP&lt;/font&gt;" style="rounded=1;whiteSpace=wrap;html=1;fontSize=14;" parent="1" vertex="1">
          <mxGeometry x="360" y="110" width="130" height="60" as="geometry" />
        </mxCell>
        <mxCell id="yMuBvw2z0iRrxeMvUbNI-72" style="edgeStyle=orthogonalEdgeStyle;rounded=0;orthogonalLoop=1;jettySize=auto;html=1;exitX=1;exitY=0.75;exitDx=0;exitDy=0;fontSize=12;elbow=vertical;" parent="1" source="yMuBvw2z0iRrxeMvUbNI-7" target="yMuBvw2z0iRrxeMvUbNI-66" edge="1">
          <mxGeometry relative="1" as="geometry">
            <Array as="points">
              <mxPoint x="690" y="380" />
              <mxPoint x="1080" y="380" />
              <mxPoint x="1080" y="505" />
            </Array>
          </mxGeometry>
        </mxCell>
        <mxCell id="yMuBvw2z0iRrxeMvUbNI-73" style="edgeStyle=orthogonalEdgeStyle;rounded=0;orthogonalLoop=1;jettySize=auto;html=1;exitX=1;exitY=0.75;exitDx=0;exitDy=0;fontSize=12;elbow=vertical;entryX=0.5;entryY=1;entryDx=0;entryDy=0;" parent="1" source="yMuBvw2z0iRrxeMvUbNI-7" target="yMuBvw2z0iRrxeMvUbNI-66" edge="1">
          <mxGeometry relative="1" as="geometry">
            <Array as="points">
              <mxPoint x="690" y="370" />
              <mxPoint x="1120" y="370" />
              <mxPoint x="1120" y="580" />
              <mxPoint x="830" y="580" />
            </Array>
            <mxPoint x="820" y="580" as="targetPoint" />
          </mxGeometry>
        </mxCell>
        <mxCell id="yMuBvw2z0iRrxeMvUbNI-82" style="edgeStyle=orthogonalEdgeStyle;rounded=0;orthogonalLoop=1;jettySize=auto;html=1;exitX=1;exitY=0.75;exitDx=0;exitDy=0;fontSize=12;elbow=vertical;" parent="1" source="yMuBvw2z0iRrxeMvUbNI-7" edge="1">
          <mxGeometry relative="1" as="geometry">
            <mxPoint x="880" as="targetPoint" />
            <Array as="points">
              <mxPoint x="1120" y="363" />
              <mxPoint x="1120" />
            </Array>
          </mxGeometry>
        </mxCell>
        <mxCell id="yMuBvw2z0iRrxeMvUbNI-7" value="2&lt;br&gt;&lt;br&gt;Manage Class&lt;br&gt;HTML/PHP" style="rounded=1;whiteSpace=wrap;html=1;fontSize=14;" parent="1" vertex="1">
          <mxGeometry x="570" y="310" width="120" height="70" as="geometry" />
        </mxCell>
        <mxCell id="yMuBvw2z0iRrxeMvUbNI-8" value="5&lt;br&gt;&lt;br&gt;Manage Payment&lt;br&gt;HTML/PHP" style="rounded=1;whiteSpace=wrap;html=1;fontSize=14;" parent="1" vertex="1">
          <mxGeometry x="550" y="440" width="120" height="70" as="geometry" />
        </mxCell>
        <mxCell id="yMuBvw2z0iRrxeMvUbNI-109" style="edgeStyle=orthogonalEdgeStyle;rounded=0;orthogonalLoop=1;jettySize=auto;html=1;entryX=0.826;entryY=-0.017;entryDx=0;entryDy=0;entryPerimeter=0;fontSize=12;elbow=vertical;" parent="1" source="yMuBvw2z0iRrxeMvUbNI-9" target="yMuBvw2z0iRrxeMvUbNI-2" edge="1">
          <mxGeometry relative="1" as="geometry">
            <Array as="points">
              <mxPoint x="1190" y="640" />
              <mxPoint x="1190" y="-40" />
              <mxPoint x="860" y="-40" />
              <mxPoint x="860" y="-21" />
            </Array>
          </mxGeometry>
        </mxCell>
        <mxCell id="yMuBvw2z0iRrxeMvUbNI-116" style="edgeStyle=orthogonalEdgeStyle;rounded=0;orthogonalLoop=1;jettySize=auto;html=1;exitX=0.813;exitY=1.027;exitDx=0;exitDy=0;entryX=1;entryY=0.5;entryDx=0;entryDy=0;fontSize=12;elbow=vertical;exitPerimeter=0;" parent="1" source="yMuBvw2z0iRrxeMvUbNI-9" target="yMuBvw2z0iRrxeMvUbNI-111" edge="1">
          <mxGeometry relative="1" as="geometry">
            <Array as="points">
              <mxPoint x="498" y="710" />
              <mxPoint x="610" y="710" />
              <mxPoint x="610" y="765" />
            </Array>
          </mxGeometry>
        </mxCell>
        <mxCell id="aDCpL4Bax41A2ZxA9qRh-5" style="edgeStyle=orthogonalEdgeStyle;rounded=0;orthogonalLoop=1;jettySize=auto;html=1;exitX=1;exitY=0.75;exitDx=0;exitDy=0;entryX=0.256;entryY=-0.079;entryDx=0;entryDy=0;entryPerimeter=0;" edge="1" parent="1" source="yMuBvw2z0iRrxeMvUbNI-9" target="aDCpL4Bax41A2ZxA9qRh-4">
          <mxGeometry relative="1" as="geometry">
            <Array as="points">
              <mxPoint x="520" y="670" />
              <mxPoint x="701" y="670" />
            </Array>
          </mxGeometry>
        </mxCell>
        <mxCell id="yMuBvw2z0iRrxeMvUbNI-9" value="Payment Gateway" style="rounded=0;whiteSpace=wrap;html=1;fontSize=14;" parent="1" vertex="1">
          <mxGeometry x="400" y="610" width="120" height="70" as="geometry" />
        </mxCell>
        <mxCell id="yMuBvw2z0iRrxeMvUbNI-41" style="edgeStyle=orthogonalEdgeStyle;rounded=0;orthogonalLoop=1;jettySize=auto;html=1;fontSize=12;" parent="1" source="yMuBvw2z0iRrxeMvUbNI-10" target="yMuBvw2z0iRrxeMvUbNI-39" edge="1">
          <mxGeometry relative="1" as="geometry">
            <Array as="points">
              <mxPoint x="430" y="570" />
            </Array>
          </mxGeometry>
        </mxCell>
        <mxCell id="yMuBvw2z0iRrxeMvUbNI-103" style="edgeStyle=orthogonalEdgeStyle;rounded=0;orthogonalLoop=1;jettySize=auto;html=1;exitX=-0.007;exitY=0.865;exitDx=0;exitDy=0;fontSize=12;elbow=vertical;exitPerimeter=0;entryX=0.25;entryY=1;entryDx=0;entryDy=0;" parent="1" source="yMuBvw2z0iRrxeMvUbNI-10" target="yMuBvw2z0iRrxeMvUbNI-1" edge="1">
          <mxGeometry relative="1" as="geometry">
            <Array as="points">
              <mxPoint x="369" y="471" />
              <mxPoint x="-10" y="471" />
            </Array>
            <mxPoint x="30" y="240" as="targetPoint" />
          </mxGeometry>
        </mxCell>
        <mxCell id="yMuBvw2z0iRrxeMvUbNI-10" value="4&lt;br&gt;&lt;br&gt;Enroll Tutor&lt;br&gt;&lt;br&gt;HTML/PHP" style="rounded=1;whiteSpace=wrap;html=1;fontSize=14;" parent="1" vertex="1">
          <mxGeometry x="370" y="410" width="120" height="90" as="geometry" />
        </mxCell>
        <mxCell id="yMuBvw2z0iRrxeMvUbNI-11" value="" style="endArrow=classic;html=1;rounded=0;fontSize=14;entryX=0;entryY=0.5;entryDx=0;entryDy=0;exitX=1;exitY=0.5;exitDx=0;exitDy=0;" parent="1" source="yMuBvw2z0iRrxeMvUbNI-1" target="yMuBvw2z0iRrxeMvUbNI-3" edge="1">
          <mxGeometry width="50" height="50" relative="1" as="geometry">
            <mxPoint x="170" y="140" as="sourcePoint" />
            <mxPoint x="370" y="140" as="targetPoint" />
          </mxGeometry>
        </mxCell>
        <mxCell id="yMuBvw2z0iRrxeMvUbNI-17" value="" style="endArrow=none;html=1;rounded=0;fontSize=14;exitX=-0.017;exitY=0.375;exitDx=0;exitDy=0;exitPerimeter=0;" parent="1" source="yMuBvw2z0iRrxeMvUbNI-3" edge="1">
          <mxGeometry width="50" height="50" relative="1" as="geometry">
            <mxPoint x="370" y="133" as="sourcePoint" />
            <mxPoint x="490" y="133" as="targetPoint" />
          </mxGeometry>
        </mxCell>
        <mxCell id="yMuBvw2z0iRrxeMvUbNI-20" value="" style="endArrow=classic;html=1;rounded=0;fontSize=14;exitX=0.858;exitY=0.992;exitDx=0;exitDy=0;entryX=1;entryY=0.15;entryDx=0;entryDy=0;edgeStyle=orthogonalEdgeStyle;exitPerimeter=0;entryPerimeter=0;" parent="1" source="yMuBvw2z0iRrxeMvUbNI-2" target="yMuBvw2z0iRrxeMvUbNI-7" edge="1">
          <mxGeometry width="50" height="50" relative="1" as="geometry">
            <mxPoint x="310" y="290" as="sourcePoint" />
            <mxPoint x="360" y="240" as="targetPoint" />
            <Array as="points">
              <mxPoint x="840" y="40" />
              <mxPoint x="840" y="320" />
            </Array>
          </mxGeometry>
        </mxCell>
        <mxCell id="yMuBvw2z0iRrxeMvUbNI-21" value="" style="endArrow=classic;html=1;rounded=0;fontSize=14;exitX=0.5;exitY=1;exitDx=0;exitDy=0;entryX=0;entryY=0.5;entryDx=0;entryDy=0;edgeStyle=orthogonalEdgeStyle;" parent="1" source="yMuBvw2z0iRrxeMvUbNI-1" target="yMuBvw2z0iRrxeMvUbNI-10" edge="1">
          <mxGeometry width="50" height="50" relative="1" as="geometry">
            <mxPoint x="310" y="290" as="sourcePoint" />
            <mxPoint x="360" y="240" as="targetPoint" />
          </mxGeometry>
        </mxCell>
        <mxCell id="yMuBvw2z0iRrxeMvUbNI-25" value="" style="endArrow=none;html=1;rounded=0;fontSize=14;" parent="1" edge="1">
          <mxGeometry width="50" height="50" relative="1" as="geometry">
            <mxPoint x="370" y="440" as="sourcePoint" />
            <mxPoint x="490" y="440" as="targetPoint" />
          </mxGeometry>
        </mxCell>
        <mxCell id="yMuBvw2z0iRrxeMvUbNI-26" value="" style="endArrow=none;html=1;rounded=0;fontSize=14;exitX=0.008;exitY=0.407;exitDx=0;exitDy=0;exitPerimeter=0;entryX=1.008;entryY=0.407;entryDx=0;entryDy=0;entryPerimeter=0;" parent="1" source="yMuBvw2z0iRrxeMvUbNI-7" target="yMuBvw2z0iRrxeMvUbNI-7" edge="1">
          <mxGeometry width="50" height="50" relative="1" as="geometry">
            <mxPoint x="310" y="230" as="sourcePoint" />
            <mxPoint x="360" y="180" as="targetPoint" />
          </mxGeometry>
        </mxCell>
        <mxCell id="yMuBvw2z0iRrxeMvUbNI-27" value="" style="endArrow=none;html=1;rounded=0;fontSize=14;exitX=0;exitY=0.392;exitDx=0;exitDy=0;exitPerimeter=0;entryX=1;entryY=0.392;entryDx=0;entryDy=0;entryPerimeter=0;" parent="1" source="yMuBvw2z0iRrxeMvUbNI-8" target="yMuBvw2z0iRrxeMvUbNI-8" edge="1">
          <mxGeometry width="50" height="50" relative="1" as="geometry">
            <mxPoint x="310" y="230" as="sourcePoint" />
            <mxPoint x="360" y="180" as="targetPoint" />
            <Array as="points" />
          </mxGeometry>
        </mxCell>
        <mxCell id="yMuBvw2z0iRrxeMvUbNI-29" value="" style="endArrow=classic;html=1;rounded=0;fontSize=14;exitX=0;exitY=1;exitDx=0;exitDy=0;entryX=1;entryY=1;entryDx=0;entryDy=0;" parent="1" source="yMuBvw2z0iRrxeMvUbNI-3" target="yMuBvw2z0iRrxeMvUbNI-1" edge="1">
          <mxGeometry width="50" height="50" relative="1" as="geometry">
            <mxPoint x="360" y="155" as="sourcePoint" />
            <mxPoint x="170" y="170" as="targetPoint" />
          </mxGeometry>
        </mxCell>
        <mxCell id="yMuBvw2z0iRrxeMvUbNI-30" value="&lt;span style=&quot;font-size: 12px;&quot;&gt;HTML: Student Home Page&lt;/span&gt;" style="text;html=1;strokeColor=none;fillColor=none;align=center;verticalAlign=middle;whiteSpace=wrap;rounded=0;fontSize=14;" parent="1" vertex="1">
          <mxGeometry x="185" y="145" width="150" height="30" as="geometry" />
        </mxCell>
        <mxCell id="yMuBvw2z0iRrxeMvUbNI-36" value="MySQL Record:Login credentials" style="text;html=1;strokeColor=none;fillColor=none;align=center;verticalAlign=middle;whiteSpace=wrap;rounded=0;fontSize=12;" parent="1" vertex="1">
          <mxGeometry x="130" y="125" width="220" height="20" as="geometry" />
        </mxCell>
        <mxCell id="yMuBvw2z0iRrxeMvUbNI-37" value="" style="endArrow=classic;html=1;rounded=0;fontSize=12;exitX=0.125;exitY=0.008;exitDx=0;exitDy=0;entryX=1;entryY=0.5;entryDx=0;entryDy=0;edgeStyle=orthogonalEdgeStyle;exitPerimeter=0;" parent="1" source="yMuBvw2z0iRrxeMvUbNI-3" target="yMuBvw2z0iRrxeMvUbNI-129" edge="1">
          <mxGeometry width="50" height="50" relative="1" as="geometry">
            <mxPoint x="400" y="240" as="sourcePoint" />
            <mxPoint x="450" y="190" as="targetPoint" />
          </mxGeometry>
        </mxCell>
        <mxCell id="yMuBvw2z0iRrxeMvUbNI-38" value="MySQL Record: New Student Account" style="text;html=1;strokeColor=none;fillColor=none;align=center;verticalAlign=middle;whiteSpace=wrap;rounded=0;fontSize=12;" parent="1" vertex="1">
          <mxGeometry x="200" y="-40" width="210" height="30" as="geometry" />
        </mxCell>
        <mxCell id="yMuBvw2z0iRrxeMvUbNI-39" value="&lt;font style=&quot;font-size: 14px;&quot;&gt;5&lt;br&gt;&lt;/font&gt;&lt;br&gt;&lt;font style=&quot;font-size: 14px;&quot;&gt;Giving Feedback&lt;br&gt;HTML/PHP&lt;br&gt;&lt;/font&gt;" style="rounded=1;whiteSpace=wrap;html=1;fontSize=12;" parent="1" vertex="1">
          <mxGeometry x="120" y="530" width="120" height="70" as="geometry" />
        </mxCell>
        <mxCell id="yMuBvw2z0iRrxeMvUbNI-40" value="" style="endArrow=none;html=1;rounded=0;fontSize=12;exitX=0;exitY=0.367;exitDx=0;exitDy=0;entryX=1.017;entryY=0.383;entryDx=0;entryDy=0;exitPerimeter=0;entryPerimeter=0;" parent="1" source="yMuBvw2z0iRrxeMvUbNI-39" target="yMuBvw2z0iRrxeMvUbNI-39" edge="1">
          <mxGeometry width="50" height="50" relative="1" as="geometry">
            <mxPoint x="400" y="360" as="sourcePoint" />
            <mxPoint x="450" y="310" as="targetPoint" />
            <Array as="points" />
          </mxGeometry>
        </mxCell>
        <mxCell id="yMuBvw2z0iRrxeMvUbNI-42" value="&lt;font style=&quot;font-size: 12px;&quot;&gt;HTML: Tutor Home Page&lt;/font&gt;" style="text;html=1;strokeColor=none;fillColor=none;align=center;verticalAlign=middle;whiteSpace=wrap;rounded=0;fontSize=14;" parent="1" vertex="1">
          <mxGeometry x="570" y="125" width="150" height="30" as="geometry" />
        </mxCell>
        <mxCell id="yMuBvw2z0iRrxeMvUbNI-43" value="MySQL Record: Login credentials" style="text;html=1;strokeColor=none;fillColor=none;align=center;verticalAlign=middle;whiteSpace=wrap;rounded=0;fontSize=12;" parent="1" vertex="1">
          <mxGeometry x="515" y="105" width="190" height="20" as="geometry" />
        </mxCell>
        <mxCell id="yMuBvw2z0iRrxeMvUbNI-44" value="MySQL Record: New Tutor account" style="text;html=1;strokeColor=none;fillColor=none;align=center;verticalAlign=middle;whiteSpace=wrap;rounded=0;fontSize=12;" parent="1" vertex="1">
          <mxGeometry x="440" y="10" width="130" height="30" as="geometry" />
        </mxCell>
        <mxCell id="yMuBvw2z0iRrxeMvUbNI-47" style="edgeStyle=elbowEdgeStyle;rounded=0;orthogonalLoop=1;jettySize=auto;elbow=vertical;html=1;exitX=0.5;exitY=0;exitDx=0;exitDy=0;fontSize=12;" parent="1" edge="1">
          <mxGeometry relative="1" as="geometry">
            <mxPoint x="270" y="170" as="sourcePoint" />
            <mxPoint x="270" y="170" as="targetPoint" />
          </mxGeometry>
        </mxCell>
        <mxCell id="yMuBvw2z0iRrxeMvUbNI-49" value="" style="endArrow=classic;html=1;rounded=0;fontSize=12;elbow=vertical;exitX=1;exitY=0.5;exitDx=0;exitDy=0;entryX=0.75;entryY=1;entryDx=0;entryDy=0;edgeStyle=orthogonalEdgeStyle;" parent="1" source="yMuBvw2z0iRrxeMvUbNI-3" target="yMuBvw2z0iRrxeMvUbNI-2" edge="1">
          <mxGeometry width="50" height="50" relative="1" as="geometry">
            <mxPoint x="400" y="210" as="sourcePoint" />
            <mxPoint x="450" y="160" as="targetPoint" />
            <Array as="points">
              <mxPoint x="490" y="150" />
              <mxPoint x="820" y="150" />
            </Array>
          </mxGeometry>
        </mxCell>
        <mxCell id="yMuBvw2z0iRrxeMvUbNI-51" value="" style="endArrow=classic;html=1;rounded=0;fontSize=12;elbow=vertical;exitX=0.592;exitY=1.042;exitDx=0;exitDy=0;exitPerimeter=0;entryX=1;entryY=0.25;entryDx=0;entryDy=0;edgeStyle=orthogonalEdgeStyle;" parent="1" source="yMuBvw2z0iRrxeMvUbNI-2" target="yMuBvw2z0iRrxeMvUbNI-3" edge="1">
          <mxGeometry width="50" height="50" relative="1" as="geometry">
            <mxPoint x="400" y="210" as="sourcePoint" />
            <mxPoint x="450" y="160" as="targetPoint" />
            <Array as="points">
              <mxPoint x="800" y="43" />
              <mxPoint x="800" y="125" />
            </Array>
          </mxGeometry>
        </mxCell>
        <mxCell id="yMuBvw2z0iRrxeMvUbNI-56" value="" style="endArrow=classic;html=1;rounded=0;fontSize=12;elbow=vertical;edgeStyle=orthogonalEdgeStyle;exitX=0.5;exitY=1;exitDx=0;exitDy=0;entryX=0.5;entryY=0;entryDx=0;entryDy=0;" parent="1" source="yMuBvw2z0iRrxeMvUbNI-8" target="yMuBvw2z0iRrxeMvUbNI-9" edge="1">
          <mxGeometry width="50" height="50" relative="1" as="geometry">
            <mxPoint x="430" y="520" as="sourcePoint" />
            <mxPoint x="400" y="650" as="targetPoint" />
            <Array as="points">
              <mxPoint x="610" y="565" />
              <mxPoint x="460" y="565" />
            </Array>
          </mxGeometry>
        </mxCell>
        <mxCell id="yMuBvw2z0iRrxeMvUbNI-57" value="MySQL Record: Payment Details" style="text;html=1;strokeColor=none;fillColor=none;align=center;verticalAlign=middle;whiteSpace=wrap;rounded=0;fontSize=12;" parent="1" vertex="1">
          <mxGeometry x="480" y="530" width="100" height="30" as="geometry" />
        </mxCell>
        <mxCell id="yMuBvw2z0iRrxeMvUbNI-59" value="MySQL Record:&amp;nbsp;&lt;br&gt;new quiz details" style="text;html=1;strokeColor=none;fillColor=none;align=center;verticalAlign=middle;whiteSpace=wrap;rounded=0;fontSize=12;" parent="1" vertex="1">
          <mxGeometry x="700" y="290" width="120" height="30" as="geometry" />
        </mxCell>
        <mxCell id="yMuBvw2z0iRrxeMvUbNI-60" value="" style="endArrow=classic;html=1;rounded=0;fontSize=12;elbow=vertical;edgeStyle=orthogonalEdgeStyle;exitX=1;exitY=0.75;exitDx=0;exitDy=0;entryX=1;entryY=0.5;entryDx=0;entryDy=0;" parent="1" source="yMuBvw2z0iRrxeMvUbNI-2" target="yMuBvw2z0iRrxeMvUbNI-7" edge="1">
          <mxGeometry width="50" height="50" relative="1" as="geometry">
            <mxPoint x="850" y="90" as="sourcePoint" />
            <mxPoint x="690" y="363" as="targetPoint" />
            <Array as="points">
              <mxPoint x="880" y="30" />
              <mxPoint x="1030" y="30" />
              <mxPoint x="1030" y="345" />
            </Array>
          </mxGeometry>
        </mxCell>
        <mxCell id="yMuBvw2z0iRrxeMvUbNI-61" value="MySQL Record:&amp;nbsp;new announcement details" style="text;html=1;strokeColor=none;fillColor=none;align=center;verticalAlign=middle;whiteSpace=wrap;rounded=0;fontSize=12;" parent="1" vertex="1">
          <mxGeometry x="775" y="320" width="245" height="30" as="geometry" />
        </mxCell>
        <mxCell id="yMuBvw2z0iRrxeMvUbNI-68" style="edgeStyle=orthogonalEdgeStyle;rounded=0;orthogonalLoop=1;jettySize=auto;html=1;fontSize=12;elbow=vertical;entryX=0.75;entryY=1;entryDx=0;entryDy=0;" parent="1" source="yMuBvw2z0iRrxeMvUbNI-66" target="yMuBvw2z0iRrxeMvUbNI-7" edge="1">
          <mxGeometry relative="1" as="geometry">
            <mxPoint x="660" y="390" as="targetPoint" />
            <Array as="points">
              <mxPoint x="770" y="400" />
              <mxPoint x="660" y="400" />
            </Array>
          </mxGeometry>
        </mxCell>
        <mxCell id="yMuBvw2z0iRrxeMvUbNI-69" style="edgeStyle=orthogonalEdgeStyle;rounded=0;orthogonalLoop=1;jettySize=auto;html=1;entryX=0.567;entryY=0.979;entryDx=0;entryDy=0;entryPerimeter=0;fontSize=12;elbow=vertical;exitX=0.245;exitY=-0.017;exitDx=0;exitDy=0;exitPerimeter=0;" parent="1" source="yMuBvw2z0iRrxeMvUbNI-66" target="yMuBvw2z0iRrxeMvUbNI-7" edge="1">
          <mxGeometry relative="1" as="geometry">
            <Array as="points">
              <mxPoint x="739" y="430" />
              <mxPoint x="638" y="430" />
            </Array>
          </mxGeometry>
        </mxCell>
        <mxCell id="yMuBvw2z0iRrxeMvUbNI-66" value="D3&amp;nbsp; &amp;nbsp; MySQL: Classes information" style="html=1;dashed=0;whitespace=wrap;shape=mxgraph.dfd.dataStoreID;align=left;spacingLeft=3;points=[[0,0],[0.5,0],[1,0],[0,0.5],[1,0.5],[0,1],[0.5,1],[1,1]];fontSize=12;" parent="1" vertex="1">
          <mxGeometry x="735" y="490" width="190" height="30" as="geometry" />
        </mxCell>
        <mxCell id="yMuBvw2z0iRrxeMvUbNI-70" value="MySQL Record: quizzes list" style="text;html=1;align=center;verticalAlign=middle;resizable=0;points=[];autosize=1;strokeColor=none;fillColor=none;fontSize=12;" parent="1" vertex="1">
          <mxGeometry x="660" y="375" width="170" height="30" as="geometry" />
        </mxCell>
        <mxCell id="yMuBvw2z0iRrxeMvUbNI-71" value="MySQL Record:&amp;nbsp;&lt;br&gt;announcements list" style="text;html=1;align=center;verticalAlign=middle;resizable=0;points=[];autosize=1;strokeColor=none;fillColor=none;fontSize=12;" parent="1" vertex="1">
          <mxGeometry x="630" y="400" width="130" height="40" as="geometry" />
        </mxCell>
        <mxCell id="yMuBvw2z0iRrxeMvUbNI-79" value="MySQL Record: &lt;br&gt;new quiz" style="text;html=1;align=center;verticalAlign=middle;resizable=0;points=[];autosize=1;strokeColor=none;fillColor=none;fontSize=12;" parent="1" vertex="1">
          <mxGeometry x="945" y="470" width="110" height="40" as="geometry" />
        </mxCell>
        <mxCell id="yMuBvw2z0iRrxeMvUbNI-80" value="MySQL Record:&amp;nbsp;new announcement" style="text;html=1;align=center;verticalAlign=middle;resizable=0;points=[];autosize=1;strokeColor=none;fillColor=none;fontSize=12;" parent="1" vertex="1">
          <mxGeometry x="835" y="550" width="220" height="30" as="geometry" />
        </mxCell>
        <mxCell id="yMuBvw2z0iRrxeMvUbNI-83" value="" style="endArrow=classic;html=1;rounded=0;fontSize=12;elbow=vertical;exitX=1.011;exitY=0.64;exitDx=0;exitDy=0;exitPerimeter=0;entryX=1;entryY=0.75;entryDx=0;entryDy=0;edgeStyle=orthogonalEdgeStyle;" parent="1" source="yMuBvw2z0iRrxeMvUbNI-7" target="yMuBvw2z0iRrxeMvUbNI-2" edge="1">
          <mxGeometry width="50" height="50" relative="1" as="geometry">
            <mxPoint x="550" y="360" as="sourcePoint" />
            <mxPoint x="600" y="310" as="targetPoint" />
            <Array as="points">
              <mxPoint x="1080" y="355" />
              <mxPoint x="1080" y="25" />
            </Array>
          </mxGeometry>
        </mxCell>
        <mxCell id="yMuBvw2z0iRrxeMvUbNI-84" value="MySQL Record: quizzes" style="text;html=1;align=center;verticalAlign=middle;resizable=0;points=[];autosize=1;strokeColor=none;fillColor=none;fontSize=12;" parent="1" vertex="1">
          <mxGeometry x="980" y="-30" width="150" height="30" as="geometry" />
        </mxCell>
        <mxCell id="yMuBvw2z0iRrxeMvUbNI-85" value="MySQL Record: announcements" style="text;html=1;align=center;verticalAlign=middle;resizable=0;points=[];autosize=1;strokeColor=none;fillColor=none;fontSize=12;" parent="1" vertex="1">
          <mxGeometry x="910" width="200" height="30" as="geometry" />
        </mxCell>
        <mxCell id="yMuBvw2z0iRrxeMvUbNI-98" style="edgeStyle=orthogonalEdgeStyle;rounded=0;orthogonalLoop=1;jettySize=auto;html=1;entryX=0;entryY=0.25;entryDx=0;entryDy=0;fontSize=12;elbow=vertical;" parent="1" source="yMuBvw2z0iRrxeMvUbNI-92" target="yMuBvw2z0iRrxeMvUbNI-10" edge="1">
          <mxGeometry relative="1" as="geometry">
            <Array as="points">
              <mxPoint x="435" y="400" />
              <mxPoint x="310" y="400" />
              <mxPoint x="310" y="428" />
              <mxPoint x="370" y="428" />
            </Array>
          </mxGeometry>
        </mxCell>
        <mxCell id="yMuBvw2z0iRrxeMvUbNI-99" style="edgeStyle=orthogonalEdgeStyle;rounded=0;orthogonalLoop=1;jettySize=auto;html=1;entryX=1;entryY=0.5;entryDx=0;entryDy=0;fontSize=12;elbow=vertical;" parent="1" source="yMuBvw2z0iRrxeMvUbNI-92" target="yMuBvw2z0iRrxeMvUbNI-10" edge="1">
          <mxGeometry relative="1" as="geometry">
            <Array as="points">
              <mxPoint x="460" y="390" />
              <mxPoint x="530" y="390" />
              <mxPoint x="530" y="445" />
              <mxPoint x="490" y="445" />
            </Array>
          </mxGeometry>
        </mxCell>
        <mxCell id="yMuBvw2z0iRrxeMvUbNI-101" style="edgeStyle=orthogonalEdgeStyle;rounded=0;orthogonalLoop=1;jettySize=auto;html=1;entryX=0.75;entryY=1;entryDx=0;entryDy=0;fontSize=12;elbow=vertical;" parent="1" source="yMuBvw2z0iRrxeMvUbNI-92" target="yMuBvw2z0iRrxeMvUbNI-1" edge="1">
          <mxGeometry relative="1" as="geometry" />
        </mxCell>
        <mxCell id="yMuBvw2z0iRrxeMvUbNI-92" value="3&lt;br&gt;&lt;br&gt;&lt;font style=&quot;font-size: 14px;&quot;&gt;Search and Filter Tutor&lt;br&gt;&lt;/font&gt;&lt;br&gt;&lt;font style=&quot;font-size: 14px;&quot;&gt;HTML/PHP&lt;/font&gt;" style="rounded=1;whiteSpace=wrap;html=1;fontSize=12;" parent="1" vertex="1">
          <mxGeometry x="360" y="280" width="150" height="80" as="geometry" />
        </mxCell>
        <mxCell id="yMuBvw2z0iRrxeMvUbNI-93" value="" style="endArrow=none;html=1;rounded=0;fontSize=12;elbow=vertical;exitX=0.001;exitY=0.387;exitDx=0;exitDy=0;exitPerimeter=0;entryX=0.994;entryY=0.387;entryDx=0;entryDy=0;entryPerimeter=0;" parent="1" source="yMuBvw2z0iRrxeMvUbNI-92" target="yMuBvw2z0iRrxeMvUbNI-92" edge="1">
          <mxGeometry width="50" height="50" relative="1" as="geometry">
            <mxPoint x="490" y="310" as="sourcePoint" />
            <mxPoint x="350" y="303" as="targetPoint" />
          </mxGeometry>
        </mxCell>
        <mxCell id="yMuBvw2z0iRrxeMvUbNI-95" value="Input Form: &lt;br&gt;Search text" style="text;html=1;align=center;verticalAlign=middle;resizable=0;points=[];autosize=1;strokeColor=none;fillColor=none;fontSize=12;" parent="1" vertex="1">
          <mxGeometry x="374" y="205" width="80" height="40" as="geometry" />
        </mxCell>
        <mxCell id="yMuBvw2z0iRrxeMvUbNI-97" value="Input Form: &lt;br&gt;Request for booking" style="text;html=1;align=center;verticalAlign=middle;resizable=0;points=[];autosize=1;strokeColor=none;fillColor=none;fontSize=12;" parent="1" vertex="1">
          <mxGeometry x="300" y="365" width="130" height="40" as="geometry" />
        </mxCell>
        <mxCell id="yMuBvw2z0iRrxeMvUbNI-100" value="&lt;br&gt;MySQL Record:&amp;nbsp;&lt;br&gt;Date for booking" style="text;html=1;align=center;verticalAlign=middle;resizable=0;points=[];autosize=1;strokeColor=none;fillColor=none;fontSize=12;" parent="1" vertex="1">
          <mxGeometry x="455" y="340" width="110" height="60" as="geometry" />
        </mxCell>
        <mxCell id="yMuBvw2z0iRrxeMvUbNI-104" value="HTML: Tutor confirmation message" style="text;html=1;align=center;verticalAlign=middle;resizable=0;points=[];autosize=1;strokeColor=none;fillColor=none;fontSize=12;" parent="1" vertex="1">
          <mxGeometry x="110" y="450" width="210" height="30" as="geometry" />
        </mxCell>
        <mxCell id="yMuBvw2z0iRrxeMvUbNI-106" value="&lt;blockquote style=&quot;margin: 0 0 0 40px; border: none; padding: 0px;&quot;&gt;MySQL Field: Class ID&amp;nbsp;&lt;/blockquote&gt;" style="text;html=1;align=center;verticalAlign=middle;resizable=0;points=[];autosize=1;strokeColor=none;fillColor=none;fontSize=12;" parent="1" vertex="1">
          <mxGeometry x="470" y="190" width="190" height="30" as="geometry" />
        </mxCell>
        <mxCell id="yMuBvw2z0iRrxeMvUbNI-110" value="MySQL Record: Payments" style="text;html=1;align=center;verticalAlign=middle;resizable=0;points=[];autosize=1;strokeColor=none;fillColor=none;fontSize=12;" parent="1" vertex="1">
          <mxGeometry x="690" y="610" width="170" height="30" as="geometry" />
        </mxCell>
        <mxCell id="yMuBvw2z0iRrxeMvUbNI-118" style="edgeStyle=orthogonalEdgeStyle;rounded=0;orthogonalLoop=1;jettySize=auto;html=1;exitX=0;exitY=0.5;exitDx=0;exitDy=0;entryX=0.4;entryY=1.041;entryDx=0;entryDy=0;entryPerimeter=0;fontSize=12;elbow=vertical;" parent="1" source="yMuBvw2z0iRrxeMvUbNI-111" target="yMuBvw2z0iRrxeMvUbNI-9" edge="1">
          <mxGeometry relative="1" as="geometry">
            <Array as="points">
              <mxPoint x="379" y="765" />
              <mxPoint x="379" y="720" />
              <mxPoint x="448" y="720" />
            </Array>
          </mxGeometry>
        </mxCell>
        <mxCell id="yMuBvw2z0iRrxeMvUbNI-111" value="D4&amp;nbsp; &amp;nbsp; MySQL: Student Payments" style="html=1;dashed=0;whitespace=wrap;shape=mxgraph.dfd.dataStoreID;align=left;spacingLeft=3;points=[[0,0],[0.5,0],[1,0],[0,0.5],[1,0.5],[0,1],[0.5,1],[1,1]];fontSize=12;" parent="1" vertex="1">
          <mxGeometry x="360" y="750" width="190" height="30" as="geometry" />
        </mxCell>
        <mxCell id="yMuBvw2z0iRrxeMvUbNI-117" value="MySQL Record:&lt;br&gt;&amp;nbsp;new Student payment" style="text;html=1;align=center;verticalAlign=middle;resizable=0;points=[];autosize=1;strokeColor=none;fillColor=none;fontSize=12;" parent="1" vertex="1">
          <mxGeometry x="500" y="670" width="140" height="40" as="geometry" />
        </mxCell>
        <mxCell id="yMuBvw2z0iRrxeMvUbNI-119" value="MySQL Record:&amp;nbsp;&lt;br&gt;Payment list" style="text;html=1;align=center;verticalAlign=middle;resizable=0;points=[];autosize=1;strokeColor=none;fillColor=none;fontSize=12;" parent="1" vertex="1">
          <mxGeometry x="350" y="685" width="110" height="40" as="geometry" />
        </mxCell>
        <mxCell id="yMuBvw2z0iRrxeMvUbNI-123" value="MySQL Record: Tutors" style="text;html=1;align=center;verticalAlign=middle;resizable=0;points=[];autosize=1;strokeColor=none;fillColor=none;fontSize=12;" parent="1" vertex="1">
          <mxGeometry x="180" y="300" width="150" height="30" as="geometry" />
        </mxCell>
        <mxCell id="yMuBvw2z0iRrxeMvUbNI-126" style="edgeStyle=orthogonalEdgeStyle;rounded=0;orthogonalLoop=1;jettySize=auto;html=1;entryX=0.5;entryY=0;entryDx=0;entryDy=0;fontSize=12;elbow=vertical;" parent="1" source="yMuBvw2z0iRrxeMvUbNI-124" target="yMuBvw2z0iRrxeMvUbNI-3" edge="1">
          <mxGeometry relative="1" as="geometry">
            <Array as="points">
              <mxPoint x="425" y="-25" />
            </Array>
          </mxGeometry>
        </mxCell>
        <mxCell id="yMuBvw2z0iRrxeMvUbNI-134" style="edgeStyle=orthogonalEdgeStyle;rounded=0;orthogonalLoop=1;jettySize=auto;html=1;entryX=0.75;entryY=0;entryDx=0;entryDy=0;fontSize=12;elbow=vertical;" parent="1" source="yMuBvw2z0iRrxeMvUbNI-124" target="yMuBvw2z0iRrxeMvUbNI-92" edge="1">
          <mxGeometry relative="1" as="geometry">
            <Array as="points">
              <mxPoint x="710" y="-25" />
              <mxPoint x="710" y="260" />
              <mxPoint x="473" y="260" />
            </Array>
          </mxGeometry>
        </mxCell>
        <mxCell id="yMuBvw2z0iRrxeMvUbNI-124" value="D1&amp;nbsp; &amp;nbsp; &amp;nbsp;MySQL: Tutors" style="html=1;dashed=0;whitespace=wrap;shape=mxgraph.dfd.dataStoreID;align=left;spacingLeft=3;points=[[0,0],[0.5,0],[1,0],[0,0.5],[1,0.5],[0,1],[0.5,1],[1,1]];fontSize=12;" parent="1" vertex="1">
          <mxGeometry x="535" y="-40" width="150" height="30" as="geometry" />
        </mxCell>
        <mxCell id="yMuBvw2z0iRrxeMvUbNI-128" value="HTML:&lt;br&gt;Account Confirmation" style="text;html=1;align=center;verticalAlign=middle;resizable=0;points=[];autosize=1;strokeColor=none;fillColor=none;fontSize=12;" parent="1" vertex="1">
          <mxGeometry x="400" y="-60" width="140" height="40" as="geometry" />
        </mxCell>
        <mxCell id="yMuBvw2z0iRrxeMvUbNI-131" style="edgeStyle=orthogonalEdgeStyle;rounded=0;orthogonalLoop=1;jettySize=auto;html=1;fontSize=12;elbow=vertical;entryX=0.25;entryY=0;entryDx=0;entryDy=0;" parent="1" source="yMuBvw2z0iRrxeMvUbNI-129" target="yMuBvw2z0iRrxeMvUbNI-3" edge="1">
          <mxGeometry relative="1" as="geometry">
            <Array as="points">
              <mxPoint x="120" y="30" />
              <mxPoint x="392" y="30" />
            </Array>
            <mxPoint x="390" y="90" as="targetPoint" />
          </mxGeometry>
        </mxCell>
        <mxCell id="yMuBvw2z0iRrxeMvUbNI-129" value="D2&amp;nbsp; &amp;nbsp; &amp;nbsp;MySQL: Students" style="html=1;dashed=0;whitespace=wrap;shape=mxgraph.dfd.dataStoreID;align=left;spacingLeft=3;points=[[0,0],[0.5,0],[1,0],[0,0.5],[1,0.5],[0,1],[0.5,1],[1,1]];fontSize=12;" parent="1" vertex="1">
          <mxGeometry x="40" y="-30" width="150" height="30" as="geometry" />
        </mxCell>
        <mxCell id="yMuBvw2z0iRrxeMvUbNI-136" value="MySQL Record: Tutor list" style="text;html=1;align=center;verticalAlign=middle;resizable=0;points=[];autosize=1;strokeColor=none;fillColor=none;fontSize=12;" parent="1" vertex="1">
          <mxGeometry x="505" y="230" width="160" height="30" as="geometry" />
        </mxCell>
        <mxCell id="yMuBvw2z0iRrxeMvUbNI-137" value="&lt;br&gt;MySQL Record:&amp;nbsp;&lt;br&gt;tutor feedback details" style="text;html=1;align=center;verticalAlign=middle;resizable=0;points=[];autosize=1;strokeColor=none;fillColor=none;fontSize=12;" parent="1" vertex="1">
          <mxGeometry x="260" y="515" width="140" height="60" as="geometry" />
        </mxCell>
        <mxCell id="yMuBvw2z0iRrxeMvUbNI-138" value="D5&amp;nbsp; &amp;nbsp; &amp;nbsp;MySQL: Student Feedbacks" style="html=1;dashed=0;whitespace=wrap;shape=mxgraph.dfd.dataStoreID;align=left;spacingLeft=3;points=[[0,0],[0.5,0],[1,0],[0,0.5],[1,0.5],[0,1],[0.5,1],[1,1]];fontSize=12;" parent="1" vertex="1">
          <mxGeometry y="670" width="190" height="30" as="geometry" />
        </mxCell>
        <mxCell id="yMuBvw2z0iRrxeMvUbNI-140" value="" style="endArrow=classic;html=1;rounded=0;fontSize=12;elbow=vertical;exitX=1;exitY=0.75;exitDx=0;exitDy=0;entryX=1;entryY=0.5;entryDx=0;entryDy=0;edgeStyle=orthogonalEdgeStyle;" parent="1" source="yMuBvw2z0iRrxeMvUbNI-39" target="yMuBvw2z0iRrxeMvUbNI-138" edge="1">
          <mxGeometry width="50" height="50" relative="1" as="geometry">
            <mxPoint x="320" y="480" as="sourcePoint" />
            <mxPoint x="370" y="430" as="targetPoint" />
            <Array as="points">
              <mxPoint x="290" y="585" />
              <mxPoint x="290" y="685" />
            </Array>
          </mxGeometry>
        </mxCell>
        <mxCell id="yMuBvw2z0iRrxeMvUbNI-141" value="&amp;nbsp;MySQL Record:&amp;nbsp;&lt;br&gt;Feedback" style="text;html=1;align=center;verticalAlign=middle;resizable=0;points=[];autosize=1;strokeColor=none;fillColor=none;fontSize=12;" parent="1" vertex="1">
          <mxGeometry x="180" y="645" width="120" height="40" as="geometry" />
        </mxCell>
        <mxCell id="aDCpL4Bax41A2ZxA9qRh-4" value="D6&amp;nbsp; &amp;nbsp; &amp;nbsp;MySQL: Payment Transaction History" style="html=1;dashed=0;whiteSpace=wrap;shape=mxgraph.dfd.dataStoreID;align=left;spacingLeft=3;points=[[0,0],[0.5,0],[1,0],[0,0.5],[1,0.5],[0,1],[0.5,1],[1,1]];" vertex="1" parent="1">
          <mxGeometry x="640" y="750" width="240" height="30" as="geometry" />
        </mxCell>
        <mxCell id="aDCpL4Bax41A2ZxA9qRh-6" value="MySQL Record: Completed Transactions" style="text;html=1;strokeColor=none;fillColor=none;align=center;verticalAlign=middle;whiteSpace=wrap;rounded=0;" vertex="1" parent="1">
          <mxGeometry x="550" y="640" width="225" height="30" as="geometry" />
        </mxCell>
        <mxCell id="aDCpL4Bax41A2ZxA9qRh-7" value="D7&amp;nbsp; &amp;nbsp; &amp;nbsp;Access: Session Bookings" style="html=1;dashed=0;whiteSpace=wrap;shape=mxgraph.dfd.dataStoreID;align=left;spacingLeft=3;points=[[0,0],[0.5,0],[1,0],[0,0.5],[1,0.5],[0,1],[0.5,1],[1,1]];" vertex="1" parent="1">
          <mxGeometry x="-80" y="500" width="180" height="30" as="geometry" />
        </mxCell>
        <mxCell id="aDCpL4Bax41A2ZxA9qRh-8" value="" style="endArrow=classic;html=1;rounded=0;exitX=0.25;exitY=1;exitDx=0;exitDy=0;edgeStyle=orthogonalEdgeStyle;" edge="1" parent="1" source="yMuBvw2z0iRrxeMvUbNI-10">
          <mxGeometry width="50" height="50" relative="1" as="geometry">
            <mxPoint x="370" y="500" as="sourcePoint" />
            <mxPoint x="100" y="510" as="targetPoint" />
            <Array as="points">
              <mxPoint x="400" y="510" />
            </Array>
          </mxGeometry>
        </mxCell>
        <mxCell id="aDCpL4Bax41A2ZxA9qRh-9" value="Access Record: Booked Sessions" style="text;html=1;strokeColor=none;fillColor=none;align=center;verticalAlign=middle;whiteSpace=wrap;rounded=0;" vertex="1" parent="1">
          <mxGeometry x="150" y="490" width="200" height="30" as="geometry" />
        </mxCell>
        <mxCell id="aDCpL4Bax41A2ZxA9qRh-17" value="HTML: Account Confirmation" style="text;html=1;align=center;verticalAlign=middle;resizable=0;points=[];autosize=1;strokeColor=none;fillColor=none;" vertex="1" parent="1">
          <mxGeometry x="170" y="100" width="180" height="30" as="geometry" />
        </mxCell>
        <mxCell id="aDCpL4Bax41A2ZxA9qRh-21" value="" style="endArrow=none;dashed=1;html=1;rounded=0;" edge="1" parent="1">
          <mxGeometry width="50" height="50" relative="1" as="geometry">
            <mxPoint x="-80" y="-30" as="sourcePoint" />
            <mxPoint x="120" y="80" as="targetPoint" />
          </mxGeometry>
        </mxCell>
        <mxCell id="aDCpL4Bax41A2ZxA9qRh-22" value="" style="endArrow=none;dashed=1;html=1;rounded=0;" edge="1" parent="1">
          <mxGeometry width="50" height="50" relative="1" as="geometry">
            <mxPoint x="120" y="80" as="sourcePoint" />
            <mxPoint x="120" y="210" as="targetPoint" />
          </mxGeometry>
        </mxCell>
        <mxCell id="aDCpL4Bax41A2ZxA9qRh-23" value="" style="endArrow=none;dashed=1;html=1;rounded=0;" edge="1" parent="1">
          <mxGeometry width="50" height="50" relative="1" as="geometry">
            <mxPoint x="120" y="210" as="sourcePoint" />
            <mxPoint x="-90" y="320" as="targetPoint" />
          </mxGeometry>
        </mxCell>
        <mxCell id="aDCpL4Bax41A2ZxA9qRh-24" value="" style="endArrow=none;dashed=1;html=1;rounded=0;" edge="1" parent="1">
          <mxGeometry width="50" height="50" relative="1" as="geometry">
            <mxPoint x="880" y="80" as="sourcePoint" />
            <mxPoint x="1000" y="-150" as="targetPoint" />
          </mxGeometry>
        </mxCell>
        <mxCell id="aDCpL4Bax41A2ZxA9qRh-25" value="" style="endArrow=none;dashed=1;html=1;rounded=0;" edge="1" parent="1">
          <mxGeometry width="50" height="50" relative="1" as="geometry">
            <mxPoint x="750" y="80" as="sourcePoint" />
            <mxPoint x="880" y="80" as="targetPoint" />
          </mxGeometry>
        </mxCell>
        <mxCell id="aDCpL4Bax41A2ZxA9qRh-26" value="" style="endArrow=none;dashed=1;html=1;rounded=0;" edge="1" parent="1">
          <mxGeometry width="50" height="50" relative="1" as="geometry">
            <mxPoint x="750" y="80" as="sourcePoint" />
            <mxPoint x="640" y="-140" as="targetPoint" />
          </mxGeometry>
        </mxCell>
      </root>
    </mxGraphModel>
  </diagram>
</mxfile>
